# xmcd
#
# Track frame offsets: 
#        150
#        14875
#        32885
#        49198
#        63848
#        82190
#        100619
#        110851
#        128784
#        141668
#        153488
#        172378
#
# Disc length: 2505 seconds
#
# Revision: 0
# Processed by: cddbd v1.5.2PL0 Copyright (c) Steve Scherf et al.
# Submitted via: ExactAudioCopyFreeDBPlugin 1.0
#
DISCID=b709c70c
DTITLE=Maylene and The Sons Of Disaster - IV
DYEAR=2011
DGENRE=Southern Metal
TTITLE0=In Dead We Dream
TTITLE1=Save Me
TTITLE2=Faith Healer (Bring me Down)
TTITLE3=Open Your Eyes
TTITLE4=Killing Me Slow
TTITLE5=Taking On Water
TTITLE6=Fate Games
TTITLE7=Come For You
TTITLE8=Never Enough
TTITLE9=Cat's Walk
TTITLE10=Drought Of '85
TTITLE11=Off To The Laughing Place
EXTD=
EXTT0=
EXTT1=
EXTT2=
EXTT3=
EXTT4=
EXTT5=
EXTT6=
EXTT7=
EXTT8=
EXTT9=
EXTT10=
EXTT11=
PLAYORDER=
